<svg width="19" height="16" viewBox="0 0 19 16" fill="none" xmlns="http://www.w3.org/2000/svg">
<g id="Group">
<path id="Vector" d="M2.5191 0.699284C2.47213 0.720632 2.38674 0.788947 2.32697 0.852992C2.22449 0.964003 2.22022 0.989621 2.20742 1.62153L2.19461 2.27906L1.23393 2.29187L0.277528 2.30468L0.140899 2.44558L0 2.5822V3.8631V5.144L0.136629 5.28063C0.264719 5.40872 0.303146 5.42153 0.597753 5.43434L0.917978 5.45142L0.926517 10.2505L0.939326 15.0496L1.08022 15.1862L1.21685 15.3271H9.58539H17.9539L18.0906 15.1862L18.2315 15.0496L18.2443 10.2505L18.2528 5.45142L18.4919 5.43434C18.6883 5.41726 18.7524 5.39164 18.8634 5.27636L19 5.144V3.8631V2.5822L18.8591 2.44558L18.7225 2.30468L17.7661 2.29187L16.8054 2.27906L16.7926 1.62153L16.7798 0.959733L16.6389 0.823104L16.5022 0.682205H14.5809H12.6595L12.5229 0.823104L12.382 0.959733L12.3692 1.62153L12.3564 2.28333H9.5427H6.72899L6.71618 1.62153L6.70337 0.959733L6.56247 0.823104L6.42584 0.682205L4.51303 0.673666C3.4627 0.669396 2.56607 0.682205 2.5191 0.699284ZM6.04157 1.81367V2.28333H4.4618H2.88202V1.81367V1.344H4.4618H6.04157V1.81367ZM16.118 1.81367V2.28333H14.5809H13.0438V1.81367V1.344H14.5809H16.118V1.81367ZM18.3382 3.8631V4.75973H17.3348H16.3272L16.2247 4.86648C16.0838 5.0031 16.0838 5.19951 16.2247 5.33614C16.3229 5.43861 16.3443 5.44288 16.9506 5.44288H17.5697V10.0541V14.6654H9.58539H1.60112V10.0541V5.44288H2.13483C2.64719 5.44288 2.67708 5.43861 2.77528 5.33614C2.91618 5.19951 2.91618 5.0031 2.77528 4.86648L2.67281 4.75973H1.66517H0.661798V3.8631V2.96647H9.5H18.3382V3.8631Z" fill="#00B562"/>
<path id="Vector_2" d="M9.98673 4.33276C9.85864 4.384 5.99032 9.20444 5.91774 9.40085C5.8665 9.54175 5.87077 9.58444 5.92628 9.72107C5.9647 9.81074 6.05437 9.91748 6.13549 9.96871C6.26785 10.0456 6.34897 10.0541 7.27122 10.0541C8.20201 10.0541 8.26605 10.0584 8.2447 10.1267C8.16358 10.4042 7.66403 12.697 7.66403 12.7952C7.66403 13.1752 8.12515 13.4399 8.42403 13.2307C8.50515 13.1752 12.335 8.47433 12.5443 8.17546C12.6937 7.96197 12.5998 7.56489 12.3692 7.44107C12.2283 7.36849 12.1045 7.37703 11.0029 7.53501C10.4777 7.61186 10.0422 7.6631 10.0294 7.65029C10.0166 7.63748 10.055 7.44961 10.1148 7.22759C10.1703 7.00984 10.3368 6.36512 10.482 5.79725C10.7296 4.81096 10.7382 4.75546 10.6784 4.61456C10.5717 4.35838 10.2472 4.22602 9.98673 4.33276ZM9.53841 6.72804C9.20965 8.01321 9.20538 8.06444 9.46156 8.2822C9.62808 8.41883 9.67504 8.41883 10.7595 8.26085C11.2505 8.18826 11.6562 8.1413 11.6647 8.14984C11.6775 8.15838 10.9773 9.0422 10.1105 10.1096C9.24808 11.1813 8.53504 12.048 8.5265 12.0395C8.51796 12.031 8.62043 11.5485 8.75279 10.9721C8.91504 10.2676 8.98763 9.87051 8.97055 9.78085C8.95347 9.70399 8.88515 9.58444 8.81257 9.51613L8.68448 9.39231L7.72808 9.37096L6.77167 9.34961L8.2874 7.45815C9.12426 6.42062 9.81167 5.57096 9.82021 5.57096C9.82875 5.57096 9.70066 6.09186 9.53841 6.72804Z" fill="#00B562"/>
</g>
</svg>
