<svg width="64" height="64" viewBox="0 0 64 64" fill="none" xmlns="http://www.w3.org/2000/svg">
<path d="M23.9981 51.9961H17.9981C16.0127 51.9942 14.0504 51.57 12.2415 50.7517C10.4326 49.9334 8.81837 48.7397 7.50605 47.2498C6.19374 45.7599 5.21332 44.008 4.62988 42.1102C4.04643 40.2125 3.87329 38.2124 4.12197 36.2426C4.37064 34.2728 5.03543 32.3785 6.07221 30.6853C7.109 28.9921 8.49406 27.5388 10.1355 26.4218C11.7769 25.3048 13.6371 24.5497 15.5926 24.2067C17.5482 23.8636 19.5543 23.9404 21.4779 24.432" stroke="#B0B7BA" stroke-width="2" stroke-linecap="round" stroke-linejoin="round"/>
<path d="M19.998 31.9961C19.9984 28.8272 20.7517 25.7037 22.1959 22.883C23.6401 20.0623 25.734 17.6252 28.3048 15.7725C30.8757 13.9198 33.85 12.7044 36.9827 12.2267C40.1154 11.7489 43.3168 12.0224 46.3231 13.0245C49.3293 14.0267 52.0544 15.7289 54.2738 17.9908C56.4932 20.2528 58.1433 23.0097 59.0882 26.0344C60.0331 29.0592 60.2458 32.2652 59.7086 35.3883C59.1715 38.5113 57.8999 41.462 55.9986 43.9972" stroke="#B0B7BA" stroke-width="2" stroke-linecap="round" stroke-linejoin="round"/>
<path d="M29.5137 40.4816L37.9989 31.9961L46.4842 40.4816" stroke="#B0B7BA" stroke-width="2" stroke-linecap="round" stroke-linejoin="round"/>
<path d="M37.998 51.9961V31.9961" stroke="#B0B7BA" stroke-width="2" stroke-linecap="round" stroke-linejoin="round"/>
</svg>
