<svg width="60" height="60" viewBox="0 0 60 60" fill="none" xmlns="http://www.w3.org/2000/svg">
<rect width="60" height="60" rx="30" fill="#ECFFF6"/>
<path d="M35 25H25V40H35V25Z" fill="#0D5E36"/>
<path d="M32.6786 18.2143H27.3214C26.7295 18.2143 26.25 18.6938 26.25 19.2857V20.3572H24.1072C23.2211 20.3572 22.5 21.0782 22.5 21.9643V40.1785C22.5 41.0646 23.2211 41.7857 24.1072 41.7857H35.8928C36.7789 41.7857 37.5 41.0646 37.5 40.1785V21.9643C37.5 21.0783 36.7789 20.3572 35.8928 20.3572H33.75V19.2857C33.7499 18.6938 33.2705 18.2143 32.6786 18.2143ZM35.8928 21.4286C36.1885 21.4286 36.4285 21.6686 36.4285 21.9643V40.1785C36.4285 40.4742 36.1885 40.7142 35.8928 40.7142H24.1072C23.8115 40.7142 23.5715 40.4742 23.5715 40.1785V21.9643C23.5715 21.6686 23.8115 21.4286 24.1072 21.4286H27.3214H32.6786L35.8928 21.4286Z" fill="#0D5E36"/>
</svg>
