<svg width="64" height="64" viewBox="0 0 64 64" fill="none" xmlns="http://www.w3.org/2000/svg">
<rect width="64" height="64" rx="32" fill="#E0FFD9"/>
<path d="M37.4956 27.825C37.4956 27.4083 37.8334 27.0704 38.2501 27.0704H42.2366C42.6533 27.0704 42.9911 27.4083 42.9911 27.825V36.1751C42.9911 36.5918 42.6533 36.9296 42.2366 36.9296H38.2501C37.8334 36.9296 37.4956 36.5918 37.4956 36.1751" stroke="#0B3900" stroke-width="0.5" stroke-miterlimit="10" stroke-linecap="round" stroke-linejoin="round"/>
<path d="M32 27.825C32 27.4083 32.3378 27.0704 32.7545 27.0704H36.7409C37.1576 27.0704 37.4955 27.4083 37.4955 27.825V36.1751C37.4955 36.5918 37.1576 36.9296 36.7409 36.9296H32.7545C32.3378 36.9296 32 36.5918 32 36.1751" stroke="#0B3900" stroke-width="0.5" stroke-miterlimit="10" stroke-linecap="round" stroke-linejoin="round"/>
<path d="M26.5044 27.825C26.5044 27.4083 26.8422 27.0704 27.2589 27.0704H31.2453C31.662 27.0704 31.9999 27.4083 31.9999 27.825V36.1751C31.9999 36.5918 31.662 36.9296 31.2453 36.9296H27.2589C26.8422 36.9296 26.5044 36.5918 26.5044 36.1751" stroke="#0B3900" stroke-width="0.5" stroke-miterlimit="10" stroke-linecap="round" stroke-linejoin="round"/>
<path d="M25.7497 36.9296H21.7633C21.3466 36.9296 21.0088 36.5918 21.0088 36.1751V27.825C21.0088 27.4083 21.3466 27.0704 21.7633 27.0704H25.7497C26.1664 27.0704 26.5043 27.4083 26.5043 27.825V36.1751C26.5043 36.5918 26.1664 36.9296 25.7497 36.9296Z" stroke="#0B3900" stroke-width="0.5" stroke-miterlimit="10" stroke-linecap="round" stroke-linejoin="round"/>
<path d="M23.5242 25.5614H42.2365C43.4867 25.5614 44.5001 26.5748 44.5001 27.825V36.1751C44.5001 37.4252 43.4867 38.4386 42.2365 38.4386V38.9417C42.2365 39.4973 41.7861 39.9477 41.2305 39.9477H22.7697C22.2141 39.9477 21.7637 39.4973 21.7637 38.9417V38.5287" stroke="#0B3900" stroke-width="0.5" stroke-miterlimit="10" stroke-linecap="round" stroke-linejoin="round"/>
<path d="M42.2364 25.4374V25.0584C42.2364 24.5027 41.786 24.0523 41.2304 24.0523H22.7696C22.214 24.0523 21.7636 24.5027 21.7636 25.0584V25.5614C20.5134 25.5614 19.5 26.5748 19.5 27.825V36.1751C19.5 37.4252 20.5134 38.4386 21.7636 38.4386H40.4759" stroke="#0B3900" stroke-width="0.5" stroke-miterlimit="10" stroke-linecap="round" stroke-linejoin="round"/>
<path d="M30.3311 29.7364H28.656L28.3242 31.7393C28.3242 31.7393 28.3449 31.7286 28.382 31.7119C28.6143 31.6073 28.8218 31.5363 29.2523 31.5363C30.0295 31.5363 30.6548 32.1874 30.614 32.9725C30.5773 33.6809 29.9897 34.249 29.2804 34.2633C28.5793 34.2774 27.9956 33.7622 27.9019 33.0901C27.8932 33.028 27.8887 32.9645 27.8887 32.9" stroke="#0B3900" stroke-width="0.5" stroke-miterlimit="10" stroke-linecap="round" stroke-linejoin="round"/>
<path d="M41.4631 34.2533C41.4631 34.2533 39.3027 34.2805 39.2004 34.2464C39.0981 34.2123 39.3645 34.0321 40.7809 32.0083C41.0455 31.6303 41.191 31.3115 41.253 31.0444L41.2749 30.8726C41.2749 30.2451 40.7662 29.7364 40.1388 29.7364C39.5866 29.7364 39.1264 30.1303 39.0239 30.6524" stroke="#0B3900" stroke-width="0.5" stroke-miterlimit="10" stroke-linecap="round" stroke-linejoin="round"/>
<path d="M34.7476 34.2636C35.4707 34.2636 36.0568 33.6775 36.0568 32.9544C36.0568 32.2314 35.4707 31.6453 34.7476 31.6453C34.0246 31.6453 33.4385 32.2314 33.4385 32.9544C33.4385 33.6775 34.0246 34.2636 34.7476 34.2636Z" stroke="#0B3900" stroke-width="0.5" stroke-miterlimit="10" stroke-linecap="round" stroke-linejoin="round"/>
<path d="M34.7474 31.6453C35.2745 31.6453 35.7018 31.218 35.7018 30.6908C35.7018 30.1637 35.2745 29.7364 34.7474 29.7364C34.2203 29.7364 33.793 30.1637 33.793 30.6908C33.793 31.218 34.2203 31.6453 34.7474 31.6453Z" stroke="#0B3900" stroke-width="0.5" stroke-miterlimit="10" stroke-linecap="round" stroke-linejoin="round"/>
<path d="M25.0146 33.0058C25.0146 33.7005 24.4515 34.2636 23.7568 34.2636C23.0622 34.2636 22.499 33.7005 22.499 33.0058V30.9942C22.499 30.2995 23.0622 29.7364 23.7568 29.7364C24.4515 29.7364 25.0146 30.2995 25.0146 30.9942V33.0058Z" stroke="#0B3900" stroke-width="0.5" stroke-miterlimit="10" stroke-linecap="round" stroke-linejoin="round"/>
</svg>
