<svg width="24" height="24" viewBox="0 0 24 24" fill="none" xmlns="http://www.w3.org/2000/svg">
<path id="Vector" fill-rule="evenodd" clip-rule="evenodd" d="M13.627 22.203C13.4478 22.2433 13.2618 22.2639 13.0716 22.2639C10.4324 22.2707 5.21765 22.2707 2.57768 22.2707C1.20542 22.2707 0.0748579 21.1949 0.00800161 19.8252C0.00800161 19.8175 0.00800146 19.8089 0.00714433 19.8012C-0.0219982 18.3682 0.0225727 16.1446 0.435711 13.6382C0.654279 12.314 1.78827 10.6488 2.94368 9.94558C2.99082 9.91732 3.03711 9.88905 3.08339 9.86164C3.37739 9.68604 3.74853 9.70232 4.02624 9.90447C5.09251 10.6788 6.40478 11.1354 7.82248 11.1354C9.24018 11.1354 10.5524 10.6788 11.6187 9.90447C11.8947 9.70403 12.2624 9.6869 12.5564 9.85907C12.6044 9.88734 12.6524 9.91646 12.7013 9.94558C13.2876 10.3028 13.8755 10.9007 14.3341 11.5808C15.2855 11.0257 16.3912 10.7071 17.5715 10.7071C21.1192 10.7071 24 13.586 24 17.1313C24 19.361 22.8609 21.3276 21.132 22.4797C21.0283 22.5491 20.9212 22.6159 20.8132 22.6793C19.8609 23.2361 18.7535 23.5556 17.5715 23.5556C16.0852 23.5556 14.7164 23.051 13.627 22.203ZM12.9781 12.6378C12.7338 12.2549 12.4347 11.896 12.1176 11.6313C10.8687 12.4031 9.39703 12.8485 7.82248 12.8485C6.24707 12.8485 4.77537 12.4022 3.52653 11.6304C2.85625 12.1812 2.25626 13.1354 2.12769 13.9166C1.73684 16.2876 1.69398 18.3922 1.72141 19.7618C1.75398 20.209 2.12598 20.5576 2.57683 20.5576C4.93137 20.5576 9.33532 20.5576 12.1313 20.5533C11.8321 20.0796 11.5939 19.5648 11.4259 19.0192C11.2416 18.4222 11.143 17.7883 11.143 17.1313C11.143 16.7424 11.1773 16.3621 11.2442 15.9929C11.4764 14.6995 12.0953 13.5397 12.9781 12.6378ZM14.3907 20.6064C15.229 21.3739 16.3458 21.8424 17.5715 21.8424C18.4372 21.8424 19.2489 21.6086 19.9466 21.2009C20.0263 21.1537 20.1043 21.1049 20.1815 21.0544C21.4492 20.209 22.2857 18.7674 22.2857 17.1313C22.2857 14.5308 20.1738 12.4202 17.5715 12.4202C16.4427 12.4202 15.4064 12.8176 14.5947 13.4798C13.7401 14.1762 13.1341 15.1664 12.931 16.2953C12.883 16.566 12.8573 16.8461 12.8573 17.1313C12.8573 17.6127 12.9293 18.0778 13.0638 18.5155C13.3141 19.3275 13.7787 20.0471 14.3907 20.6064ZM16.7161 20.2775C16.2841 20.173 15.8744 20.0025 15.5444 19.7798C15.1527 19.5151 15.049 18.9824 15.313 18.5909C15.5778 18.1986 16.111 18.0949 16.5035 18.3596C16.8609 18.6003 17.3967 18.7357 17.8441 18.6748C18.0592 18.6457 18.2624 18.5549 18.2624 18.2962C18.2624 18.2611 18.2272 18.2526 18.2006 18.2371C18.1209 18.1917 18.0292 18.1566 17.9324 18.1241C17.5998 18.0127 17.2192 17.9391 16.8738 17.838C15.877 17.5476 15.1664 17.014 15.1664 15.9767C15.1664 15.4533 15.3207 15.0421 15.559 14.7227C15.8358 14.35 16.2404 14.0939 16.7178 13.9629C16.7555 13.5252 17.1241 13.1817 17.5715 13.1817C18.0249 13.1817 18.3969 13.5346 18.4269 13.9809C18.8623 14.0888 19.2772 14.2687 19.6098 14.5008C19.998 14.7715 20.0923 15.306 19.8215 15.694C19.5506 16.0812 19.0158 16.1762 18.6283 15.9056C18.2752 15.6589 17.7446 15.527 17.3032 15.5886C17.0855 15.6186 16.8807 15.7154 16.8807 15.9767C16.8807 16.0118 16.9158 16.0203 16.9424 16.0358C17.0221 16.082 17.1138 16.1163 17.2107 16.1488C17.5432 16.2602 17.9238 16.3339 18.2692 16.4349C19.2661 16.7253 19.9766 17.2589 19.9766 18.2962C19.9766 19.3558 19.4041 19.9648 18.6121 20.2449C18.5521 20.2663 18.4895 20.2852 18.4252 20.3015C18.3858 20.7383 18.0181 21.0809 17.5715 21.0809C17.1164 21.0809 16.7435 20.7255 16.7161 20.2775ZM7.82248 0C10.4016 0 12.4964 2.09259 12.4964 4.67C12.4964 7.24826 10.4016 9.34085 7.82248 9.34085C5.24337 9.34085 3.14939 7.24826 3.14939 4.67C3.14939 2.09259 5.24337 0 7.82248 0ZM7.82248 1.71313C6.18964 1.71313 4.86366 3.03824 4.86366 4.67C4.86366 6.30261 6.18964 7.62772 7.82248 7.62772C9.45617 7.62772 10.7822 6.30261 10.7822 4.67C10.7822 3.03824 9.45617 1.71313 7.82248 1.71313Z" fill="black"/>
</svg>
