<svg width="24" height="22" viewBox="0 0 24 22" fill="none" xmlns="http://www.w3.org/2000/svg">
<g id="Group">
<path id="Vector" d="M12 8.68582C14.2523 8.68582 16.0781 6.85998 16.0781 4.6077C16.0781 2.35541 14.2523 0.529572 12 0.529572C9.74771 0.529572 7.92188 2.35541 7.92188 4.6077C7.92188 6.85998 9.74771 8.68582 12 8.68582Z" fill="#0FAF62"/>
<path id="Vector_2" d="M20.25 8.68576C21.6739 8.68576 22.8281 7.53149 22.8281 6.10764C22.8281 4.68378 21.6739 3.52951 20.25 3.52951C18.8261 3.52951 17.6719 4.68378 17.6719 6.10764C17.6719 7.53149 18.8261 8.68576 20.25 8.68576Z" fill="#0FAF62"/>
<path id="Vector_3" d="M3.75 8.68576C5.17386 8.68576 6.32812 7.53149 6.32812 6.10764C6.32812 4.68378 5.17386 3.52951 3.75 3.52951C2.32614 3.52951 1.17188 4.68378 1.17188 6.10764C1.17188 7.53149 2.32614 8.68576 3.75 8.68576Z" fill="#0FAF62"/>
<path id="Vector_4" d="M6.29016 11.001C5.27531 10.1695 4.35623 10.2796 3.18281 10.2796C1.42781 10.2796 0 11.6989 0 13.4432V18.5624C0 19.3199 0.618281 19.9358 1.37859 19.9358C4.66106 19.9358 4.26562 19.9952 4.26562 19.7943C4.26562 16.1668 3.83597 13.5066 6.29016 11.001Z" fill="#0FAF62"/>
<path id="Vector_5" d="M13.1162 10.2983C11.0667 10.1273 9.28518 10.3002 7.74857 11.5686C5.17715 13.6283 5.67201 16.4015 5.67201 19.7942C5.67201 20.6918 6.40232 21.4358 7.31357 21.4358C17.208 21.4358 17.6018 21.7549 18.1886 20.4556C18.381 20.0162 18.3283 20.1558 18.3283 15.9523C18.3283 12.6136 15.4373 10.2983 13.1162 10.2983Z" fill="#0FAF62"/>
<path id="Vector_6" d="M20.8173 10.2795C19.6375 10.2795 18.7234 10.1706 17.71 11.0009C20.1458 13.4879 19.7345 15.9666 19.7345 19.7942C19.7345 19.9964 19.4062 19.9358 22.5723 19.9358C23.3598 19.9358 24.0001 19.2978 24.0001 18.5136V13.4431C24.0001 11.6989 22.5723 10.2795 20.8173 10.2795Z" fill="#0FAF62"/>
</g>
</svg>
