<svg width="48" height="48" viewBox="0 0 48 48" fill="none" xmlns="http://www.w3.org/2000/svg">
<g id="Frame 427320936">
<rect width="48" height="48" rx="24" fill="#F0FDF4"/>
<g id="Group 57">
<path id="Vector" d="M20.7332 11.3232C20.8327 11.3212 20.9322 11.319 21.0316 11.3169C21.3569 11.3102 21.6821 11.3056 22.0074 11.3015C22.0908 11.3005 22.0908 11.3005 22.1759 11.2994C22.7017 11.2927 23.2275 11.287 23.7533 11.2832C24.4222 11.2783 25.0908 11.2691 25.7597 11.2541C26.2319 11.2438 26.7041 11.2386 27.1765 11.2369C27.4577 11.2358 27.7384 11.2326 28.0195 11.224C29.9253 11.1677 29.9253 11.1677 30.5604 11.7309C30.8068 11.9672 31.0222 12.2275 31.2233 12.5029C31.4255 12.7781 31.6539 13.0303 31.8974 13.2696C31.9349 13.3067 31.9725 13.3439 32.0111 13.3822C32.0492 13.4196 32.0872 13.457 32.1264 13.4955C32.5506 13.9126 32.5506 13.9126 32.7439 14.1377C32.9466 14.3736 33.1677 14.5898 33.3892 14.8078C33.6413 15.0559 33.8859 15.305 34.1163 15.5734C34.2939 15.7727 34.4865 15.9577 34.6767 16.1449C34.9294 16.3935 35.1745 16.6432 35.4053 16.9122C35.6097 17.1415 35.8347 17.3521 36.0548 17.5662C36.7697 18.2707 36.7697 18.2707 36.7877 18.6199C36.7878 18.6692 36.7878 18.7186 36.7879 18.7694C36.7881 18.8264 36.7883 18.8834 36.7885 18.9421C36.7884 19.0049 36.7884 19.0678 36.7883 19.1326C36.7885 19.1998 36.7886 19.2671 36.7888 19.3343C36.7892 19.5195 36.7893 19.7047 36.7893 19.89C36.7894 20.0896 36.7898 20.2892 36.7901 20.4888C36.7908 20.9256 36.7911 21.3624 36.7913 21.7992C36.7914 22.0721 36.7916 22.3449 36.7919 22.6178C36.7925 23.3735 36.793 24.1292 36.7931 24.8849C36.7931 24.9333 36.7932 24.9817 36.7932 25.0315C36.7932 25.08 36.7932 25.1285 36.7932 25.1785C36.7932 25.2768 36.7932 25.3751 36.7933 25.4734C36.7933 25.5221 36.7933 25.5709 36.7933 25.6211C36.7935 26.4101 36.7944 27.1992 36.7955 27.9882C36.7967 28.7986 36.7973 29.609 36.7974 30.4194C36.7974 30.8743 36.7977 31.3292 36.7986 31.7841C36.7994 32.1716 36.7996 32.5592 36.7992 32.9468C36.799 33.1444 36.7991 33.3419 36.7997 33.5395C36.8004 33.7208 36.8003 33.9021 36.7997 34.0834C36.7996 34.1792 36.8002 34.2749 36.8008 34.3706C36.7974 34.9739 36.7371 35.5549 36.3357 36.0274C36.3066 36.0625 36.2775 36.0976 36.2475 36.1338C35.9707 36.439 35.5518 36.7041 35.129 36.7271C35.0823 36.7272 35.0356 36.7272 34.9874 36.7273C34.9335 36.7276 34.8795 36.7278 34.8239 36.728C34.7644 36.728 34.7049 36.728 34.6436 36.728C34.549 36.7282 34.549 36.7283 34.4526 36.7285C34.2772 36.729 34.1019 36.7292 33.9266 36.7293C33.7376 36.7295 33.5486 36.73 33.3596 36.7304C32.903 36.7314 32.4464 36.7319 31.9897 36.7324C31.7747 36.7326 31.5596 36.7328 31.3445 36.7331C30.6295 36.7339 29.9145 36.7347 29.1994 36.735C29.0138 36.7351 28.8282 36.7352 28.6427 36.7353C28.5735 36.7353 28.5735 36.7353 28.5029 36.7354C27.756 36.7358 27.0091 36.737 26.2623 36.7387C25.4953 36.7403 24.7284 36.7412 23.9615 36.7413C23.5309 36.7414 23.1004 36.7419 22.6699 36.7431C22.3031 36.7442 21.9363 36.7446 21.5696 36.7441C21.3826 36.7439 21.1956 36.744 21.0085 36.745C20.8054 36.746 20.6023 36.7455 20.3992 36.7448C20.3113 36.7457 20.3113 36.7457 20.2216 36.7465C19.6407 36.742 19.179 36.5799 18.7559 36.176C18.1651 35.5571 18.1836 34.8884 18.1918 34.0816C18.1922 33.9747 18.1925 33.8678 18.1927 33.7608C18.1934 33.481 18.1953 33.2012 18.1975 32.9214C18.1996 32.6353 18.2005 32.3491 18.2015 32.0629C18.2036 31.5026 18.207 30.9423 18.2111 30.3821C18.1587 30.3824 18.1062 30.3827 18.0521 30.3831C17.5567 30.3861 17.0613 30.3883 16.5658 30.3897C16.3112 30.3905 16.0565 30.3916 15.8018 30.3933C15.5559 30.3949 15.3099 30.3958 15.0639 30.3961C14.9703 30.3964 14.8766 30.397 14.783 30.3978C14.6514 30.3988 14.5199 30.399 14.3883 30.3989C14.3307 30.3997 14.3307 30.3997 14.2719 30.4005C13.8133 30.398 13.5014 30.2231 13.1703 29.9103C12.8656 29.5689 12.8075 29.1705 12.8068 28.7246C12.8066 28.6611 12.8064 28.5976 12.8061 28.5322C12.8062 28.4624 12.8062 28.3926 12.8062 28.3228C12.8061 28.2489 12.8059 28.1749 12.8057 28.1009C12.8053 27.9005 12.8052 27.7 12.8051 27.4996C12.8051 27.3742 12.805 27.2488 12.8048 27.1235C12.8044 26.6856 12.8042 26.2478 12.8042 25.81C12.8043 25.4025 12.8037 24.9951 12.803 24.5877C12.8023 24.2373 12.802 23.8869 12.8021 23.5366C12.8021 23.3276 12.8019 23.1186 12.8014 22.9095C12.8009 22.7129 12.8009 22.5162 12.8013 22.3195C12.8013 22.2476 12.8012 22.1756 12.8009 22.1037C12.7987 21.5212 12.8177 21.0363 13.2096 20.577C13.5606 20.2501 13.9085 20.1079 14.3827 20.1144C14.4243 20.1144 14.4658 20.1144 14.5087 20.1144C14.6451 20.1145 14.7814 20.1156 14.9178 20.1168C15.0128 20.1171 15.1078 20.1173 15.2028 20.1174C15.452 20.118 15.7012 20.1194 15.9504 20.1211C16.205 20.1226 16.4596 20.1233 16.7142 20.124C17.2132 20.1256 17.7122 20.1282 18.2111 20.1313C18.211 20.0945 18.2108 20.0578 18.2106 20.0199C18.2062 19.1238 18.2029 18.2276 18.2009 17.3315C18.1999 16.8981 18.1985 16.4647 18.1962 16.0314C18.1942 15.6535 18.193 15.2756 18.1925 14.8976C18.1923 14.6977 18.1917 14.4978 18.1902 14.2978C18.1888 14.1093 18.1884 13.9207 18.1887 13.7322C18.1887 13.6633 18.1883 13.5945 18.1875 13.5256C18.1808 12.8837 18.3051 12.3831 18.7559 11.9109C19.3377 11.3555 19.9716 11.3338 20.7332 11.3232ZM19.4554 12.6939C19.4142 12.7419 19.4142 12.7419 19.3722 12.7908C19.2271 13.0147 19.1892 13.2341 19.1896 13.4973C19.1895 13.5561 19.1894 13.6148 19.1892 13.6753C19.1896 13.7391 19.1899 13.8029 19.1903 13.8685C19.1903 13.9369 19.1903 14.0052 19.1903 14.0736C19.1902 14.2586 19.1908 14.4435 19.1915 14.6285C19.1921 14.822 19.1922 15.0155 19.1923 15.209C19.1926 15.5752 19.1934 15.9414 19.1944 16.3076C19.1955 16.7246 19.1961 17.1416 19.1966 17.5586C19.1976 18.4162 19.1994 19.2737 19.2016 20.1313C19.2455 20.1314 19.2895 20.1314 19.3347 20.1315C20.4053 20.1333 21.4758 20.1363 22.5463 20.1404C23.064 20.1424 23.5817 20.144 24.0994 20.1447C24.5507 20.1454 25.0021 20.1467 25.4534 20.1488C25.6923 20.15 25.9312 20.1507 26.17 20.1507C26.3951 20.1507 26.6202 20.1515 26.8453 20.1531C26.9277 20.1536 27.01 20.1536 27.0924 20.1534C27.9404 20.1509 27.9404 20.1509 28.3134 20.3789C28.34 20.4056 28.3667 20.4323 28.3942 20.4598C28.4576 20.5391 28.4576 20.5391 28.561 20.5275C28.5752 20.556 28.5894 20.5845 28.6041 20.6139C28.6396 20.6848 28.6753 20.7556 28.7113 20.8263C28.728 20.8594 28.7448 20.8926 28.7621 20.9267C28.779 20.96 28.796 20.9932 28.8134 21.0275C28.9053 21.2213 28.9141 21.3751 28.9149 21.5875C28.9151 21.6198 28.9153 21.6521 28.9154 21.6855C28.916 21.794 28.9162 21.9026 28.9164 22.0111C28.9167 22.0889 28.917 22.1667 28.9174 22.2444C28.9184 22.5001 28.9189 22.7558 28.9194 23.0114C28.9196 23.0995 28.9198 23.1876 28.92 23.2757C28.921 23.6897 28.9217 24.1037 28.9221 24.5177C28.9226 24.9951 28.9239 25.4724 28.9259 25.9498C28.9274 26.3191 28.9281 26.6883 28.9282 27.0576C28.9284 27.278 28.9288 27.4983 28.9301 27.7187C28.9312 27.9263 28.9314 28.1339 28.9309 28.3415C28.9309 28.4174 28.9312 28.4933 28.9319 28.5691C28.9361 29.0618 28.8823 29.4459 28.629 29.8745C28.3048 30.1816 27.9641 30.3381 27.5208 30.3404C27.4853 30.3406 27.4498 30.3409 27.4132 30.3411C27.2939 30.3419 27.1746 30.3423 27.0553 30.3427C26.9699 30.3432 26.8845 30.3437 26.7991 30.3442C26.5669 30.3455 26.3348 30.3466 26.1027 30.3476C25.8602 30.3486 25.6177 30.35 25.3752 30.3513C24.9159 30.3538 24.4566 30.356 23.9972 30.3582C23.4744 30.3606 22.9515 30.3633 22.4286 30.3661C21.3529 30.3717 20.2773 30.377 19.2016 30.3821C19.1981 30.9628 19.1955 31.5435 19.1939 32.1242C19.1931 32.3939 19.192 32.6635 19.1904 32.9332C19.1887 33.1936 19.1878 33.454 19.1875 33.7144C19.1872 33.8136 19.1867 33.9128 19.1859 34.012C19.1848 34.1513 19.1846 34.2905 19.1847 34.4298C19.1842 34.4705 19.1836 34.5112 19.1831 34.5532C19.1847 34.8664 19.2367 35.1458 19.4408 35.3956C19.4894 35.4356 19.4894 35.4356 19.5389 35.4765C19.5709 35.5039 19.6029 35.5314 19.6358 35.5597C19.9515 35.7642 20.2788 35.7446 20.6417 35.7439C20.7025 35.7441 20.7632 35.7444 20.8258 35.7446C20.9942 35.7453 21.1625 35.7454 21.3308 35.7454C21.5125 35.7455 21.6942 35.7461 21.8759 35.7467C22.2729 35.7478 22.67 35.7482 23.0671 35.7485C23.3152 35.7486 23.5632 35.749 23.8113 35.7493C24.4984 35.7503 25.1854 35.7511 25.8725 35.7512C25.9165 35.7512 25.9604 35.7513 26.0057 35.7513C26.0948 35.7513 26.1839 35.7513 26.273 35.7513C26.3172 35.7513 26.3615 35.7513 26.407 35.7514C26.4734 35.7514 26.4734 35.7514 26.5412 35.7514C27.2586 35.7516 27.9761 35.7529 28.6935 35.7547C29.4305 35.7566 30.1675 35.7576 30.9045 35.7576C31.3181 35.7576 31.7317 35.758 32.1454 35.7595C32.4976 35.7607 32.8498 35.7611 33.202 35.7603C33.3816 35.76 33.5612 35.76 33.7407 35.7611C33.9357 35.7623 34.1307 35.7616 34.3257 35.7607C34.382 35.7614 34.4384 35.762 34.4964 35.7627C34.8597 35.7589 35.1428 35.693 35.4443 35.4827C35.6627 35.2534 35.7477 35.0355 35.7475 34.7225C35.7476 34.6672 35.7477 34.6118 35.7478 34.5548C35.7476 34.4633 35.7476 34.4633 35.7474 34.3699C35.7474 34.3053 35.7475 34.2406 35.7475 34.174C35.7476 33.9942 35.7474 33.8145 35.7472 33.6347C35.747 33.441 35.747 33.2472 35.7471 33.0535C35.7471 32.7177 35.747 32.382 35.7467 32.0462C35.7463 31.5607 35.7461 31.0753 35.7461 30.5898C35.746 29.8022 35.7456 29.0146 35.7452 28.227C35.7447 27.4618 35.7444 26.6967 35.7442 25.9315C35.7441 25.8843 35.7441 25.8372 35.7441 25.7886C35.7441 25.5521 35.744 25.3156 35.7439 25.0791C35.7434 23.1162 35.7425 21.1533 35.7414 19.1904C35.7085 19.1903 35.6755 19.1902 35.6416 19.19C34.8398 19.1871 34.038 19.1834 33.2362 19.1787C32.8484 19.1765 32.4607 19.1745 32.0729 19.1732C31.7349 19.1721 31.397 19.1704 31.059 19.1682C30.8801 19.167 30.7011 19.1661 30.5222 19.1658C30.3224 19.1654 30.1226 19.1639 29.9228 19.1623C29.8635 19.1624 29.8042 19.1624 29.7431 19.1625C29.6886 19.1619 29.6341 19.1613 29.5779 19.1606C29.5307 19.1604 29.4834 19.1602 29.4348 19.1599C29.2782 19.1372 29.1844 19.0836 29.0562 18.9923C28.9495 18.8401 28.9444 18.709 28.9433 18.526C28.9428 18.4716 28.9422 18.4171 28.9417 18.361C28.9415 18.3016 28.9414 18.2421 28.9413 18.1808C28.9406 18.0866 28.9406 18.0866 28.9398 17.9904C28.9385 17.8183 28.9377 17.6463 28.9371 17.4742C28.9363 17.2943 28.935 17.1144 28.9337 16.9345C28.9314 16.5939 28.9296 16.2533 28.9279 15.9127C28.926 15.525 28.9236 15.1372 28.9211 14.7494C28.916 13.9518 28.9116 13.1542 28.9076 12.3566C27.7587 12.3531 26.6098 12.3505 25.4609 12.3489C24.9274 12.3481 24.394 12.347 23.8605 12.3453C23.3955 12.3439 22.9305 12.3429 22.4654 12.3426C22.2193 12.3424 21.9731 12.3419 21.7269 12.3408C21.4951 12.3398 21.2632 12.3395 21.0314 12.3397C20.9464 12.3397 20.8615 12.3394 20.7765 12.3388C20.6602 12.3381 20.5439 12.3383 20.4276 12.3387C20.3626 12.3385 20.2976 12.3384 20.2306 12.3383C19.9267 12.368 19.6557 12.4509 19.4554 12.6939ZM29.9475 12.8022C29.9475 14.5672 29.9475 16.3321 29.9475 18.1505C31.6471 18.1505 33.3466 18.1505 35.0977 18.1505C34.9057 17.8944 34.746 17.6878 34.5237 17.4696C34.4986 17.4447 34.4735 17.4198 34.4476 17.3942C34.3684 17.3159 34.2889 17.2379 34.2094 17.16C34.1046 17.0571 33.9999 16.9539 33.8954 16.8505C33.8577 16.8132 33.8577 16.8132 33.8191 16.775C33.655 16.6116 33.5012 16.4425 33.351 16.2664C33.1755 16.068 32.9837 15.8849 32.795 15.6992C32.5429 15.4511 32.2983 15.202 32.0679 14.9337C31.8903 14.7343 31.6977 14.5494 31.5074 14.3621C31.2534 14.1121 31.0062 13.8611 30.774 13.5906C30.6312 13.4283 30.4784 13.2764 30.3251 13.1241C30.294 13.0928 30.263 13.0616 30.2309 13.0293C30.2014 12.9998 30.1718 12.9704 30.1414 12.94C30.1148 12.9134 30.0882 12.8869 30.0608 12.8596C30.0052 12.7967 30.0052 12.7967 29.9475 12.8022ZM13.9384 21.331C13.8361 21.4961 13.8287 21.5912 13.8288 21.7844C13.8284 21.8482 13.828 21.912 13.8276 21.9778C13.8281 22.0481 13.8287 22.1185 13.8293 22.1888C13.8292 22.2632 13.829 22.3375 13.8287 22.4119C13.8282 22.6136 13.829 22.8152 13.83 23.0169C13.8309 23.2279 13.8307 23.439 13.8306 23.6501C13.8307 24.0045 13.8316 24.3588 13.833 24.7132C13.8345 25.123 13.835 25.5328 13.835 25.9425C13.8349 26.3367 13.8354 26.7309 13.8362 27.1251C13.8366 27.2929 13.8368 27.4607 13.8368 27.6285C13.8369 27.826 13.8375 28.0235 13.8385 28.221C13.8388 28.2935 13.8389 28.366 13.8389 28.4385C13.8388 28.5374 13.8394 28.6363 13.8401 28.7352C13.8403 28.7906 13.8404 28.8459 13.8406 28.903C13.8538 29.05 13.8637 29.1258 13.9524 29.2431C14.2153 29.4286 14.4781 29.4125 14.7871 29.4105C14.8684 29.4109 14.8684 29.4109 14.9514 29.4112C15.1332 29.4118 15.315 29.4113 15.4968 29.4109C15.6271 29.4111 15.7574 29.4113 15.8877 29.4117C16.205 29.4123 16.5222 29.4122 16.8394 29.4117C17.0973 29.4114 17.3551 29.4114 17.613 29.4115C17.6497 29.4115 17.6864 29.4116 17.7242 29.4116C17.7988 29.4116 17.8733 29.4117 17.9479 29.4117C18.647 29.4122 19.3462 29.4117 20.0453 29.4109C20.6451 29.4102 21.2449 29.4103 21.8447 29.411C22.5414 29.4118 23.238 29.4121 23.9347 29.4117C24.009 29.4116 24.0833 29.4116 24.1576 29.4115C24.2124 29.4115 24.2124 29.4115 24.2683 29.4115C24.5258 29.4113 24.7833 29.4115 25.0409 29.4119C25.3875 29.4123 25.7341 29.412 26.0807 29.4112C26.2081 29.411 26.3354 29.411 26.4627 29.4113C26.6363 29.4118 26.8099 29.4112 26.9835 29.4105C27.0593 29.411 27.0593 29.411 27.1367 29.4115C27.4 29.4093 27.5929 29.3957 27.8181 29.2431C28.0272 28.9266 27.9877 28.5612 27.9859 28.1943C27.9861 28.1231 27.9864 28.0519 27.9867 27.9807C27.9874 27.7881 27.9871 27.5954 27.9867 27.4028C27.9863 27.2007 27.9866 26.9987 27.9869 26.7967C27.9871 26.4575 27.9868 26.1184 27.9861 25.7792C27.9853 25.3875 27.9855 24.9959 27.9863 24.6042C27.987 24.2674 27.9871 23.9306 27.9867 23.5939C27.9865 23.3929 27.9865 23.192 27.987 22.9911C27.9874 22.8022 27.9871 22.6133 27.9862 22.4243C27.986 22.3552 27.9861 22.286 27.9864 22.2168C28.001 21.718 28.001 21.718 27.8181 21.2703C27.5239 21.1049 27.2639 21.1007 26.9314 21.1032C26.8775 21.103 26.8236 21.1028 26.768 21.1026C26.5876 21.1021 26.4073 21.1027 26.2269 21.1033C26.0975 21.1031 25.968 21.103 25.8386 21.1027C25.5237 21.1022 25.2089 21.1026 24.894 21.1032C24.5273 21.1038 24.1606 21.1038 23.7939 21.1037C23.1396 21.1035 22.4853 21.1041 21.8311 21.1051C21.1962 21.106 20.5614 21.1063 19.9265 21.1061C19.235 21.1058 18.5435 21.1058 17.852 21.1063C17.7783 21.1064 17.7046 21.1065 17.6309 21.1065C17.5765 21.1066 17.5765 21.1066 17.521 21.1066C17.2653 21.1068 17.0097 21.1068 16.7541 21.1067C16.4101 21.1066 16.0662 21.107 15.7223 21.1078C15.5959 21.108 15.4695 21.108 15.3431 21.1079C15.1709 21.1077 14.9987 21.1082 14.8265 21.1088C14.7762 21.1086 14.7259 21.1084 14.6741 21.1082C14.3729 21.1101 14.1634 21.1115 13.9384 21.331Z" fill="#00B562"/>
<path id="Vector_2" d="M19.4487 23.2513C19.8062 23.1892 20.1884 23.1319 20.5381 23.2513C20.7994 23.4795 20.9401 23.8079 21.0726 24.1227C21.1422 24.2613 21.2304 24.3712 21.3304 24.4893C21.3475 24.4518 21.3645 24.4143 21.3821 24.3757C21.8728 23.3369 21.8728 23.3369 22.2105 23.1927C22.5155 23.1426 22.814 23.181 23.1132 23.2513C23.0458 23.4908 22.9386 23.6776 22.7975 23.8796C22.7534 23.9445 22.7093 24.0095 22.6654 24.0746C22.6302 24.1265 22.6302 24.1265 22.5943 24.1794C22.4567 24.3835 22.3215 24.5891 22.1878 24.7957C22.161 24.836 22.1342 24.8763 22.1065 24.9178C22.0821 24.9558 22.0576 24.9939 22.0324 25.0331C22.0104 25.0667 21.9884 25.1004 21.9658 25.135C21.913 25.2597 21.9241 25.3054 21.9742 25.4302C22.0208 25.5115 22.0706 25.591 22.1224 25.6691C22.1683 25.7388 22.1683 25.7388 22.2151 25.81C22.248 25.8593 22.2808 25.9086 22.3147 25.9594C22.3822 26.0619 22.4497 26.1644 22.5172 26.2668C22.5508 26.3177 22.5845 26.3685 22.6191 26.4209C22.759 26.6327 22.8976 26.8453 23.0358 27.0582C23.0704 27.1111 23.0704 27.1111 23.1057 27.1651C23.2617 27.4053 23.2617 27.4053 23.2617 27.4605C22.9031 27.5233 22.5237 27.5775 22.1723 27.4605C21.8982 27.2339 21.7462 26.9056 21.5917 26.5916C21.5035 26.4221 21.3962 26.2755 21.2809 26.1235C21.1684 26.2999 21.056 26.4763 20.9436 26.6527C20.9117 26.7026 20.8799 26.7525 20.8471 26.8039C20.8163 26.8523 20.7855 26.9006 20.7538 26.9504C20.7255 26.9948 20.6973 27.0391 20.6681 27.0848C20.5851 27.2122 20.5851 27.2122 20.5188 27.3516C20.4391 27.4605 20.4391 27.4605 20.3222 27.4886C20.2773 27.4874 20.2325 27.4861 20.1862 27.4847C20.1132 27.4835 20.1132 27.4835 20.0387 27.4823C19.988 27.4802 19.9373 27.4782 19.8851 27.476C19.8081 27.4743 19.8081 27.4743 19.7296 27.4726C19.6029 27.4697 19.4763 27.4656 19.3496 27.4605C19.4237 27.2513 19.5314 27.074 19.6537 26.8903C19.6737 26.8598 19.6938 26.8293 19.7144 26.798C19.7783 26.7009 19.8425 26.6041 19.9067 26.5073C19.9491 26.443 19.9915 26.3787 20.0338 26.3144C20.0545 26.2831 20.0752 26.2517 20.0965 26.2195C20.1374 26.1574 20.1782 26.0953 20.2189 26.0332C20.3065 25.9 20.3951 25.7692 20.4895 25.6406C20.5175 25.602 20.5456 25.5635 20.5745 25.5238C20.611 25.476 20.611 25.476 20.6483 25.4271C20.6996 25.3274 20.6996 25.3274 20.6501 25.2055C20.5667 25.0426 20.4722 24.888 20.3741 24.7338C20.3529 24.7002 20.3318 24.6666 20.31 24.6321C20.0945 24.2914 19.874 23.9539 19.6525 23.6172C19.6259 23.5767 19.5994 23.5362 19.5721 23.4944C19.5363 23.4402 19.5363 23.4402 19.4999 23.3848C19.4487 23.3008 19.4487 23.3008 19.4487 23.2513Z" fill="#00B562"/>
<path id="Vector_3" d="M23.3613 23.251C24.4726 23.251 25.5838 23.251 26.7287 23.251C26.7287 23.4961 26.7287 23.7412 26.7287 23.9938C26.3202 23.9938 25.9116 23.9938 25.4907 23.9938C25.4907 25.1377 25.4907 26.2816 25.4907 27.4602C25.1966 27.4602 24.9024 27.4602 24.5993 27.4602C24.5993 26.3163 24.5993 25.1724 24.5993 23.9938C24.1908 23.9938 23.7823 23.9938 23.3613 23.9938C23.3613 23.7487 23.3613 23.5035 23.3613 23.251Z" fill="#00B562"/>
<path id="Vector_4" d="M15.8828 23.251C16.9941 23.251 18.1053 23.251 19.2502 23.251C19.2502 23.4961 19.2502 23.7412 19.2502 23.9938C18.8417 23.9938 18.4331 23.9938 18.0122 23.9938C18.0122 25.1377 18.0122 26.2816 18.0122 27.4602C17.718 27.4602 17.4239 27.4602 17.1208 27.4602C17.1208 26.3163 17.1208 25.1724 17.1208 23.9938C16.7123 23.9938 16.3037 23.9938 15.8828 23.9938C15.8828 23.7487 15.8828 23.5035 15.8828 23.251Z" fill="#00B562"/>
</g>
</g>
</svg>
