<svg width="20" height="20" viewBox="0 0 20 20" fill="none" xmlns="http://www.w3.org/2000/svg">
<g id="Group">
<path id="Vector" d="M9.20957 0.549166C6.63418 0.968502 4.99395 3.0392 4.98652 5.86694C4.98652 6.46069 5.02363 6.77983 5.15723 7.32163C5.35762 8.11948 5.66563 8.88393 6.19629 9.91186C6.3707 10.2421 6.51172 10.5242 6.51172 10.5316C6.51172 10.5427 6.01816 10.5501 5.41699 10.5501C4.24434 10.5501 4.1627 10.5613 4.00312 10.7394C3.88809 10.8693 0.5 18.7921 0.5 18.9369C0.5 19.1224 0.629883 19.3339 0.796875 19.4193C0.941602 19.4935 0.993555 19.4935 10 19.4935C19.0064 19.4935 19.0584 19.4935 19.2031 19.4193C19.3701 19.3339 19.5 19.1224 19.5 18.9369C19.5 18.7921 16.1119 10.8693 15.9969 10.7394C15.8373 10.5613 15.7557 10.5501 14.583 10.5501C13.9818 10.5501 13.4883 10.5427 13.4883 10.5353C13.4883 10.5242 13.6367 10.2273 13.8186 9.87475C14.6721 8.23081 15.0135 7.09155 15.0135 5.91147C15.0098 4.62377 14.7092 3.55873 14.0709 2.60874C13.8334 2.25249 13.1766 1.59565 12.8203 1.35815C12.2859 1.0019 11.6736 0.742134 11.0205 0.601118C10.5678 0.500923 9.65488 0.474947 9.20957 0.549166ZM10.5566 1.66245C11.1801 1.75522 11.6439 1.92963 12.1375 2.25991C13.2768 3.01323 13.8965 4.30463 13.8965 5.91889C13.8965 7.31049 13.1914 9.01381 11.6699 11.3072C11.258 11.9232 10.3785 13.133 10.0965 13.4632L10 13.5746L9.90352 13.4632C9.63633 13.1478 8.7457 11.9306 8.33008 11.3072C7.23164 9.65581 6.5377 8.24936 6.22969 7.04331C6.12949 6.66108 6.12207 6.58686 6.12207 5.89291C6.12207 5.25092 6.1332 5.09877 6.20742 4.76108C6.31504 4.28608 6.50059 3.79995 6.73066 3.4103C6.93105 3.06889 7.39492 2.56049 7.71406 2.33042C8.52676 1.75522 9.56582 1.5103 10.5566 1.66245ZM7.43945 12.0011C7.56562 12.1867 7.77344 12.4873 7.90703 12.6728C8.03691 12.8583 8.14082 13.0142 8.1334 13.0179C8.12969 13.0253 7.02383 13.5894 5.67676 14.2796C4.32969 14.9699 3.19785 15.5488 3.16074 15.5673C3.10508 15.597 3.10879 15.5747 3.18301 15.404C3.23125 15.2964 3.60977 14.4095 4.0291 13.4335L4.78613 11.6634H5.99961H7.21309L7.43945 12.0011ZM16.0414 13.5968C16.4979 14.6581 16.8652 15.5339 16.8578 15.5376C16.8504 15.5451 15.6184 16.1871 14.1191 16.9664L11.3916 18.3802H10.8164H10.2412L8.52676 16.6621L6.8123 14.9476L7.7957 14.4466C8.3375 14.172 8.79766 13.9456 8.8125 13.9456C8.83105 13.9456 9.0166 14.1535 9.22812 14.4095C9.67344 14.9439 9.67715 14.9476 9.85898 14.9958C10.0854 15.0589 10.2709 14.9884 10.4676 14.7658C10.924 14.2611 11.8221 13.0773 12.427 12.1904L12.7869 11.6634H14.0004H15.2139L16.0414 13.5968ZM6.96074 18.3728C6.04414 18.3765 4.53379 18.3765 3.60234 18.3728L1.91387 18.3617L2.15879 17.7865L2.40742 17.2076L4.08105 16.3503L5.75098 15.4931L7.19082 16.9255L8.62695 18.3617L6.96074 18.3728ZM17.7113 17.4896L18.0861 18.3617L17.0285 18.3728C16.4496 18.3765 15.4959 18.3765 14.9133 18.3728L13.852 18.3617L15.5738 17.4673C16.5164 16.9738 17.3031 16.5804 17.3143 16.5953C17.3291 16.6064 17.5072 17.0109 17.7113 17.4896Z" fill="#626C70"/>
<path id="Vector_2" d="M9.72921 3.87416C9.24679 3.94467 8.74211 4.30834 8.52687 4.74623C8.3673 5.05795 8.31535 5.314 8.34132 5.65912C8.39328 6.41244 8.96847 7.03959 9.74035 7.17689C10.6718 7.34389 11.5958 6.61654 11.6589 5.65912C11.7368 4.55697 10.8239 3.71459 9.72921 3.87416ZM10.3007 5.06908C10.5493 5.23236 10.6273 5.57006 10.4751 5.80014C10.3378 6.00053 10.2079 6.07475 10.0001 6.07475C9.7923 6.07475 9.66242 6.00053 9.52882 5.80014C9.29503 5.46244 9.57336 4.98373 10.0001 4.98373C10.1189 4.98373 10.2153 5.00971 10.3007 5.06908Z" fill="#626C70"/>
</g>
</svg>
