<svg width="64" height="64" viewBox="0 0 64 64" fill="none" xmlns="http://www.w3.org/2000/svg">
<rect width="64" height="64" rx="32" fill="#F5F6F7"/>
<path d="M44 33.6702C44 30.3919 42.6781 27.4169 40.5399 25.249C40.5232 25.2268 40.5054 25.2051 40.4852 25.1849C40.465 25.1646 40.4434 25.1469 40.4212 25.1303C38.2532 22.9921 35.2782 21.6702 32 21.6702C28.7218 21.6702 25.7468 22.9921 23.5788 25.1303C23.5566 25.1469 23.5349 25.1647 23.5147 25.1849C23.4945 25.2051 23.4767 25.2267 23.46 25.249C21.3219 27.4169 20 30.3919 20 33.6702C20 36.8751 21.2479 39.8881 23.5138 42.1545C23.5142 42.1548 23.5145 42.1552 23.5148 42.1555C23.515 42.1557 23.5152 42.1559 23.5154 42.1561C23.5157 42.1564 23.516 42.1567 23.5164 42.157C23.6316 42.2722 23.7826 42.3298 23.9336 42.3298C24.0846 42.3298 24.2357 42.2722 24.3509 42.1569C24.3608 42.147 24.3697 42.1366 24.3786 42.1262L26.1973 40.3075C26.4278 40.0769 26.4278 39.7033 26.1973 39.4728C25.9668 39.2424 25.5931 39.2424 25.3627 39.4728L23.9435 40.892C22.2886 39.0505 21.3285 36.7328 21.1965 34.2604H23.2036C23.5295 34.2604 23.7937 33.9962 23.7937 33.6702C23.7937 33.3442 23.5295 33.0801 23.2036 33.0801H21.1966C21.3338 30.5406 22.3508 28.2314 23.9473 26.4522L25.3627 27.8676C25.4779 27.9828 25.629 28.0404 25.78 28.0404C25.931 28.0404 26.0821 27.9828 26.1973 27.8676C26.4278 27.637 26.4278 27.2634 26.1973 27.0329L24.782 25.6175C26.5613 24.021 28.8704 23.004 31.4098 22.8669V24.8739C31.4098 25.1999 31.6741 25.4641 32 25.4641C32.3259 25.4641 32.5902 25.1999 32.5902 24.8739V22.8669C35.1296 23.004 37.4387 24.0211 39.218 25.6176L37.8027 27.0329C37.5722 27.2635 37.5722 27.6371 37.8027 27.8676C37.9179 27.9828 38.0689 28.0404 38.2199 28.0404C38.3709 28.0404 38.522 27.9828 38.6372 27.8676L40.0526 26.4522C41.6491 28.2315 42.6662 30.5406 42.8033 33.0801H40.7963C40.4703 33.0801 40.2061 33.3442 40.2061 33.6702C40.2061 33.9962 40.4703 34.2604 40.7963 34.2604H42.8034C42.6713 36.7328 41.7113 39.0506 40.0564 40.8921L38.6372 39.4728C38.4068 39.2424 38.0331 39.2424 37.8027 39.4728C37.5722 39.7034 37.5722 40.077 37.8027 40.3075L39.6507 42.1555C39.7659 42.2707 39.9169 42.3283 40.0679 42.3283C40.1434 42.3283 40.2189 42.3139 40.29 42.2851C40.361 42.2563 40.4276 42.2131 40.4853 42.1555C42.7518 39.8889 44 36.8755 44 33.6702Z" fill="#222220"/>
<path d="M34.7112 26.9024C34.4085 26.7811 34.0651 26.9281 33.944 27.2308L32.2385 31.4878C32.1591 31.4793 32.0796 31.4735 32 31.4735C31.1694 31.4735 30.4191 31.9336 30.0418 32.6742C29.6474 33.4484 29.7484 34.3735 30.3119 35.1486C30.3695 35.2278 30.4418 35.3003 30.5216 35.3583C30.9794 35.691 31.4906 35.8669 32 35.8669C32.8307 35.8669 33.581 35.4068 33.9583 34.6662C34.3527 33.892 34.2516 32.967 33.6886 32.1925C33.631 32.113 33.5585 32.0403 33.4784 31.9821C33.4354 31.9507 33.3914 31.9222 33.3474 31.8937L35.0396 27.6696C35.1608 27.3671 35.0138 27.0236 34.7112 26.9024ZM32.9064 34.1304C32.7317 34.4734 32.3844 34.6865 32 34.6865C31.7478 34.6865 31.4941 34.5985 31.2454 34.4247C30.9621 34.018 30.9065 33.577 31.0935 33.2099C31.2682 32.8669 31.6156 32.6538 32 32.6538C32.1226 32.6538 32.2455 32.6751 32.3681 32.7164C32.3722 32.718 32.3759 32.7202 32.3799 32.7218C32.3928 32.7269 32.4058 32.7311 32.4188 32.7353C32.5313 32.7785 32.6434 32.838 32.7545 32.9155C33.0377 33.3223 33.0934 33.7633 32.9064 34.1304Z" fill="#222220"/>
</svg>
