<svg xmlns="http://www.w3.org/2000/svg" width="64" height="64" viewBox="0 0 64 64" fill="none">
<rect width="64" height="64" rx="32" fill="#FEFFDE"/>
<path d="M33.2188 23.7969C33.6828 23.7969 34.1469 23.7969 34.625 23.7969C34.625 26.2719 34.625 28.7469 34.625 31.2969C37.7188 31.2969 40.8125 31.2969 44 31.2969C44 31.7609 44 32.225 44 32.7031C40.9062 32.7031 37.8125 32.7031 34.625 32.7031C34.625 35.1781 34.625 37.6531 34.625 40.2031C34.1609 40.2031 33.6969 40.2031 33.2188 40.2031C33.2188 34.7891 33.2188 29.375 33.2188 23.7969Z" fill="#646C02"/>
<path d="M29.375 27.7344C29.8391 27.7344 30.3031 27.7344 30.7812 27.7344C30.7812 30.5497 30.7812 33.365 30.7812 36.2656C30.3172 36.2656 29.8531 36.2656 29.375 36.2656C29.375 35.09 29.375 33.9144 29.375 32.7031C26.2812 32.7031 23.1875 32.7031 20 32.7031C20 32.2391 20 31.775 20 31.2969C23.0938 31.2969 26.1875 31.2969 29.375 31.2969C29.375 30.1212 29.375 28.9456 29.375 27.7344Z" fill="#646C02"/>
<path d="M38.5156 24.2656C38.9797 24.2656 39.4437 24.2656 39.9219 24.2656C39.9219 24.7297 39.9219 25.1938 39.9219 25.6719C40.3859 25.6719 40.85 25.6719 41.3281 25.6719C41.3281 26.1359 41.3281 26.6 41.3281 27.0781C40.8641 27.0781 40.4 27.0781 39.9219 27.0781C39.9219 27.5422 39.9219 28.0062 39.9219 28.4844C39.4578 28.4844 38.9937 28.4844 38.5156 28.4844C38.5156 28.0203 38.5156 27.5563 38.5156 27.0781C38.0516 27.0781 37.5875 27.0781 37.1094 27.0781C37.1094 26.6141 37.1094 26.15 37.1094 25.6719C37.5734 25.6719 38.0375 25.6719 38.5156 25.6719C38.5156 25.2078 38.5156 24.7437 38.5156 24.2656Z" fill="#646C02"/>
</svg>